<svg id="Layer_3" enable-background="new 0 0 64 64" height="512" viewBox="0 0 64 64" width="512" xmlns="http://www.w3.org/2000/svg"><g><path fill="#ccc7cc" d="m63 36c0-2.974-2.013-5.771-5.564-7.814.996-1.244 1.564-2.664 1.564-4.186 0-5.047-6.149-9-14-9s-14 3.953-14 9c0 1.222.367 2.378 1.025 3.431-4.421 2.063-7.025 5.204-7.025 8.569 0 2.051.939 3.948 2.563 5.576-4.764 2.253-7.563 5.695-7.563 9.424 0 6.729 8.776 12 19.98 12s19.981-5.271 19.981-12c0-2.412-1.196-4.746-3.38-6.707 3.949-2.001 6.419-4.946 6.419-8.293zm-18-19c6.505 0 12 3.206 12 7s-5.495 7-12 7-12-3.206-12-7 5.495-7 12-7zm12.961 34c0 5.514-8.066 10-17.981 10s-17.98-4.486-17.98-10c0-3.128 2.701-6.084 7.253-7.991 3.457 2.451 8.733 3.991 14.747 3.991 3.935 0 7.551-.662 10.552-1.804 1.648 1.268 3.409 3.221 3.409 5.804zm-13.961-6c-9.215 0-17-4.122-17-9 0-2.67 2.354-5.242 6.33-6.966 2.487 2.408 6.742 3.966 11.67 3.966 4.483 0 8.405-1.292 10.951-3.338 3.207 1.703 5.049 3.984 5.049 6.338 0 4.878-7.785 9-17 9z"/><path fill="#ccc7cc" d="m53 24h2c0-2.851-4.299-5-10-5v2c4.883 0 8 1.777 8 3z"/><path fill="#ccc7cc" d="m18 39c-3.483 0-6.505 1.993-8 4.896-1.495-2.903-4.517-4.896-8-4.896-.552 0-1 .448-1 1v6c0 3.255 1.743 6.104 4.339 7.684-2.636.853-4.339 2.428-4.339 4.316 0 2.851 3.869 5 9 5s9-2.149 9-5c0-1.888-1.703-3.463-4.339-4.316 2.596-1.58 4.339-4.429 4.339-7.684v-6c0-.552-.448-1-1-1zm-15 7v-4.929c3.388.487 6 3.408 6 6.929v1l-.696-.522c-.916-.688-1.573-1.677-1.851-2.788l-.483-1.933-1.94.485.483 1.934c.389 1.554 1.309 2.94 2.591 3.902l1.896 1.422v1.429c-3.388-.487-6-3.408-6-6.929zm14 12c0 1.416-2.994 3-7 3s-7-1.584-7-3 2.994-3 7-3 7 1.584 7 3zm0-12c0 3.521-2.612 6.442-6 6.929v-1.429l1.896-1.422c1.282-.962 2.202-2.348 2.591-3.902l.483-1.934-1.94-.485-.483 1.934c-.277 1.11-.935 2.1-1.851 2.788l-.696.521v-1c0-3.521 2.612-6.442 6-6.929z"/><path fill="#ccc7cc" d="m58.336 10.307c.435.651.664 1.41.664 2.193s-.229 1.542-.664 2.193l-1.168 1.752 1.664 1.109 1.168-1.751c.654-.981 1-2.124 1-3.303s-.346-2.321-1-3.303l-.336-.504c-.435-.651-.664-1.41-.664-2.193s.229-1.542.664-2.193l1.168-1.752-1.664-1.109-1.168 1.751c-.654.981-1 2.124-1 3.303s.346 2.321 1 3.303z"/><path fill="#ccc7cc" d="m31.336 10.307c.435.651.664 1.41.664 2.193s-.229 1.542-.664 2.193l-1.168 1.752 1.664 1.109 1.168-1.751c.654-.981 1-2.124 1-3.303s-.346-2.321-1-3.303l-.336-.504c-.435-.651-.664-1.41-.664-2.193s.229-1.542.664-2.193l1.168-1.752-1.664-1.109-1.168 1.751c-.654.981-1 2.124-1 3.303s.346 2.321 1 3.303z"/><path fill="#ccc7cc" d="m44.586 8c.263.263.414.628.414 1s-.151.737-.414 1l-1.293 1.293 1.414 1.414 1.293-1.293c.645-.644 1-1.502 1-2.414s-.355-1.77-1-2.414l-.586-.586c-.263-.263-.414-.628-.414-1s.151-.737.414-1l1.293-1.293-1.414-1.414-1.293 1.293c-.645.644-1 1.502-1 2.414s.355 1.77 1 2.414z"/><path fill="#ccc7cc" d="m57 36c0 2.365-5.339 5-13 5v2c8.551 0 15-3.009 15-7z"/><path fill="#ccc7cc" d="m26 51h-2c0 4.486 7.028 8 16 8v-2c-8.25 0-14-3.162-14-6z"/></g></svg>